# xmcd
#
# Track frame offsets:
#	150
#	18910
#	42380
#	61340
#	80220
#	100390
#	118257
#	135782
#	153862
#	171155
#	194095
#	215117
#	236952
#
# Disc length: 3472 seconds
#
# Revision: 0
# Processed by: cddbd v1.4b42PL1 Copyright (c) Steve Scherf et al.
# Submitted via: EasyCDDAExtractor 4.5.0.2
#
DISCID=bd0d8e0d
DTITLE=Deborah Henson-Conant - Altered Ego
DYEAR=1998
DGENRE=Blues
TTITLE0=Bring It All Down
TTITLE1=996
TTITLE2=Congratulations, You made it this far
TTITLE3=The Nightingale
TTITLE4=Nobody half as strong
TTITLE5=Siana's dream: The Music Box
TTITLE6=Cindy, Cindy
TTITLE7=Altered Ego
TTITLE8=Beck's Blues
TTITLE9=Dogs of Somerville
TTITLE10=Belinda
TTITLE11=Wild mountain time/Summertime
TTITLE12=Irene Goodnight
EXTD=
EXTT0=
EXTT1=
EXTT2=
EXTT3=
EXTT4=
EXTT5=
EXTT6=
EXTT7=
EXTT8=
EXTT9=
EXTT10=
EXTT11=
EXTT12=
PLAYORDER=
